<?xml version="1.0" standalone="no"?>
<!DOCTYPE svg PUBLIC "-//W3C//DTD SVG 20010904//EN"
 "http://www.w3.org/TR/2001/REC-SVG-20010904/DTD/svg10.dtd">
<svg version="1.0" xmlns="http://www.w3.org/2000/svg"
 width="500.000000pt" height="500.000000pt" viewBox="0 0 500.000000 500.000000"
 preserveAspectRatio="xMidYMid meet">

<g transform="translate(0.000000,500.000000) scale(0.100000,-0.100000)"
fill="#000000" stroke="none">
<path d="M1345 2667 c-3 -7 -4 -78 -3 -157 l3 -145 120 0 c113 0 120 1 120 20
0 18 -8 20 -98 23 l-98 3 3 41 3 42 87 0 c91 1 104 5 95 31 -5 12 -25 15 -97
15 l-90 0 0 45 0 44 98 3 c89 3 97 5 97 23 0 19 -8 20 -118 23 -90 2 -119 0
-122 -11z"/>
<path d="M1623 2665 c-10 -27 9 -34 100 -37 l89 -3 -101 -115 c-56 -63 -100
-122 -98 -130 2 -12 26 -15 142 -15 133 0 140 1 140 20 0 18 -8 20 -97 23 -54
1 -98 5 -98 8 0 3 45 55 100 117 55 62 99 119 98 127 -3 12 -27 16 -136 18
-114 2 -133 0 -139 -13z"/>
<path d="M2111 2662 c-57 -29 -76 -64 -76 -140 0 -55 4 -73 24 -101 53 -73
180 -83 249 -19 48 45 12 75 -41 34 -45 -35 -114 -36 -145 -3 -49 53 -52 125
-5 171 34 34 107 37 147 5 29 -23 59 -19 54 8 -2 10 -18 28 -37 40 -42 29
-120 31 -170 5z"/>
<path d="M2977 2673 c-4 -3 -7 -19 -7 -34 0 -21 -5 -28 -22 -31 -13 -2 -23
-10 -23 -18 0 -8 10 -16 23 -18 21 -3 22 -8 22 -77 0 -113 21 -142 96 -133 22
2 30 9 32 27 3 22 1 23 -27 18 -41 -8 -53 15 -49 96 3 60 4 62 33 67 44 8 46
38 3 42 -29 3 -33 7 -36 36 -2 23 -8 32 -21 32 -10 0 -21 -3 -24 -7z"/>
<path d="M2413 2606 c-78 -35 -91 -162 -22 -220 55 -46 179 -29 179 25 0 23
-3 23 -55 3 -47 -18 -87 -8 -105 26 -10 19 -8 20 85 20 78 0 97 3 102 16 9 24
-14 88 -41 113 -31 29 -99 37 -143 17z m116 -62 c11 -15 18 -30 15 -35 -7 -12
-144 -12 -144 0 0 4 9 20 21 35 28 36 80 36 108 0z"/>
<path d="M2735 2605 c-19 -10 -31 -12 -33 -6 -2 6 -15 11 -28 11 l-25 0 3
-122 c3 -115 4 -123 23 -123 18 0 21 9 26 79 5 70 8 81 33 102 15 13 38 24 51
24 47 0 62 -34 68 -150 2 -48 5 -55 22 -55 19 0 20 7 20 97 0 92 -2 99 -26
124 -33 33 -93 41 -134 19z"/>
<path d="M3183 2606 c-78 -35 -91 -162 -22 -220 55 -46 179 -29 179 25 0 23
-17 24 -59 3 -37 -19 -77 -9 -99 24 l-14 22 96 0 c79 0 98 3 103 16 9 24 -14
88 -41 113 -31 29 -99 37 -143 17z m116 -62 c11 -15 18 -30 15 -35 -7 -12
-144 -12 -144 0 0 4 9 20 21 35 28 36 80 36 108 0z"/>
<path d="M3422 2488 c3 -115 4 -123 23 -123 18 0 21 8 25 87 3 48 9 90 13 95
5 4 23 13 40 19 18 6 32 17 32 25 0 18 -51 24 -70 9 -9 -7 -15 -8 -20 0 -3 5
-15 10 -26 10 -19 0 -19 -6 -17 -122z"/>
<path d="M2094 2212 c3 -5 -4 -38 -14 -73 -23 -75 -24 -79 -8 -79 6 0 9 3 6 6
-3 3 3 33 13 67 22 71 23 87 8 87 -5 0 -8 -4 -5 -8z"/>
<path d="M2257 2144 c-21 -87 -16 -112 7 -33 25 88 29 109 20 109 -5 0 -17
-34 -27 -76z"/>
<path d="M1282 2203 c4 -13 -24 -117 -35 -130 -7 -10 3 -13 46 -13 43 0 56 4
62 18 5 14 4 15 -6 5 -11 -11 -79 -19 -79 -10 0 1 9 31 20 67 11 36 20 66 20
68 0 1 -7 2 -15 2 -8 0 -14 -3 -13 -7z"/>
<path d="M1350 2206 c0 -2 7 -6 15 -10 8 -3 15 -1 15 4 0 6 -7 10 -15 10 -8 0
-15 -2 -15 -4z"/>
<path d="M1746 2140 c-10 -38 -23 -71 -30 -74 -6 -2 17 -5 52 -5 52 -1 62 2
62 16 0 13 -3 14 -12 5 -13 -13 -68 -17 -68 -4 0 4 9 35 19 70 14 45 16 62 7
62 -7 0 -20 -31 -30 -70z"/>
<path d="M1820 2206 c0 -2 7 -6 15 -10 8 -3 15 -1 15 4 0 6 -7 10 -15 10 -8 0
-15 -2 -15 -4z"/>
<path d="M2145 2200 c-3 -5 -1 -10 4 -10 6 0 11 5 11 10 0 6 -2 10 -4 10 -3 0
-8 -4 -11 -10z"/>
<path d="M2494 2201 c7 -10 -22 -111 -36 -128 -8 -10 -2 -13 25 -13 57 0 87
16 87 45 0 14 -5 25 -12 25 -6 0 -4 8 6 19 22 24 17 55 -9 58 -11 2 -14 0 -7
-3 17 -8 15 -41 -4 -52 -14 -8 -14 -12 -3 -30 10 -17 10 -23 0 -36 -16 -19
-51 -21 -51 -3 0 8 8 39 19 70 18 56 18 57 -1 57 -11 0 -17 -4 -14 -9z"/>
<path d="M3072 2186 c-1 -14 -10 -48 -21 -75 l-19 -51 21 0 c11 0 18 3 15 6
-5 5 7 62 26 122 5 15 3 22 -6 22 -8 0 -15 -11 -16 -24z"/>
<path d="M3140 2206 c0 -2 7 -6 15 -10 8 -3 15 -1 15 4 0 6 -7 10 -15 10 -8 0
-15 -2 -15 -4z"/>
<path d="M3628 2204 c-5 -4 -8 -19 -8 -33 1 -23 2 -24 11 -8 11 19 9 53 -3 41z"/>
<path d="M2713 2168 c-6 -7 -13 -26 -17 -43 -4 -16 -9 -38 -12 -47 -3 -11 0
-18 8 -18 7 0 13 12 14 29 1 16 5 37 9 47 9 22 15 44 10 44 -1 0 -7 -6 -12
-12z"/>
<path d="M3293 2168 c-6 -7 -13 -26 -17 -43 -4 -16 -9 -38 -12 -47 -4 -12 0
-18 10 -18 8 0 13 6 10 13 -2 7 2 34 10 60 15 50 15 55 -1 35z"/>
<path d="M2767 2141 c-3 -16 -9 -40 -13 -55 -4 -16 -2 -26 5 -26 6 0 10 3 9 8
-4 17 15 82 24 82 5 0 6 5 3 10 -11 18 -22 11 -28 -19z"/>
<path d="M1390 2128 c-24 -39 -22 -62 5 -65 11 -2 14 0 8 3 -18 8 -16 45 3 72
8 12 13 22 9 22 -3 0 -14 -15 -25 -32z"/>
<path d="M1446 2125 c-18 -41 -20 -65 -8 -65 9 0 33 92 27 99 -2 2 -11 -14
-19 -34z"/>
<path d="M1501 2138 c-1 -15 4 -30 10 -34 6 -3 8 -15 6 -26 -4 -15 -3 -17 9
-8 11 10 11 16 0 39 -7 14 -16 33 -19 41 -3 9 -6 4 -6 -12z"/>
<path d="M1535 2150 c3 -5 8 -10 11 -10 2 0 4 5 4 10 0 6 -5 10 -11 10 -5 0
-7 -4 -4 -10z"/>
<path d="M1580 2141 c5 -11 10 -37 10 -58 0 -21 4 -33 8 -26 13 20 2 103 -14
103 -11 0 -12 -4 -4 -19z"/>
<path d="M1635 2150 c3 -5 8 -10 11 -10 2 0 4 5 4 10 0 6 -5 10 -11 10 -5 0
-7 -4 -4 -10z"/>
<path d="M1803 2145 c-3 -9 -3 -18 -1 -21 3 -3 8 4 11 16 6 23 -1 27 -10 5z"/>
<path d="M1863 2143 c0 -10 -4 -34 -7 -53 -6 -30 -6 -32 5 -16 19 31 29 86 15
86 -6 0 -12 -8 -13 -17z"/>
<path d="M1905 2150 c-4 -6 1 -7 11 -3 14 5 16 3 10 -13 -14 -35 -19 -74 -9
-74 5 0 9 8 10 18 0 9 4 32 8 50 6 26 4 32 -8 32 -9 0 -19 -4 -22 -10z"/>
<path d="M1969 2144 c-10 -12 -10 -20 -2 -34 8 -13 9 -20 1 -28 -8 -8 -7 -13
3 -16 48 -15 51 -17 44 -34 -5 -13 -3 -14 6 -5 16 16 4 43 -19 43 -14 0 -19 8
-20 32 0 18 4 38 10 45 7 8 7 13 0 13 -5 0 -15 -7 -23 -16z"/>
<path d="M2014 2129 c-1 -36 2 -36 20 -1 13 25 13 28 -2 29 -12 1 -17 -7 -18
-28z"/>
<path d="M2127 2128 c-3 -18 -8 -41 -12 -50 -5 -12 -2 -18 6 -18 8 0 14 10 15
23 0 12 4 34 8 50 5 16 4 27 -2 27 -5 0 -12 -15 -15 -32z"/>
<path d="M2184 2146 c-3 -8 2 -26 11 -40 9 -14 13 -31 9 -37 -4 -8 -3 -9 4 -5
16 10 14 37 -3 60 -8 10 -12 23 -9 27 3 5 3 9 -1 9 -3 0 -8 -6 -11 -14z"/>
<path d="M2307 2154 c8 -4 9 -15 2 -37 -5 -18 -9 -38 -9 -44 0 -20 16 -15 17
5 0 9 4 32 8 50 6 27 5 32 -11 31 -11 0 -14 -3 -7 -5z"/>
<path d="M2653 2155 c4 -5 -1 -17 -10 -28 -17 -19 -17 -20 5 -8 25 13 28 26
10 37 -7 4 -10 3 -5 -1z"/>
<path d="M2876 2144 c-4 -9 -4 -19 -1 -22 2 -3 7 3 11 12 4 9 4 19 1 22 -2 3
-7 -3 -11 -12z"/>
<path d="M2913 2148 c0 -7 -3 -31 -7 -53 -4 -29 -4 -35 4 -24 14 23 23 89 12
89 -5 0 -9 -6 -9 -12z"/>
<path d="M2950 2150 c0 -5 5 -10 10 -10 6 0 10 5 10 10 0 6 -4 10 -10 10 -5 0
-10 -4 -10 -10z"/>
<path d="M3170 2148 c0 -7 -3 -30 -6 -50 -4 -21 -3 -38 2 -38 5 0 9 10 9 23 1
12 4 34 8 50 5 16 3 27 -3 27 -5 0 -10 -6 -10 -12z"/>
<path d="M3225 2128 c-4 -18 -9 -41 -11 -50 -3 -10 -1 -18 4 -18 5 0 12 15 15
33 3 17 8 40 12 50 4 9 3 17 -3 17 -6 0 -13 -15 -17 -32z"/>
<path d="M3336 2120 c-9 -55 -9 -54 1 -57 4 -2 8 7 8 20 1 12 4 34 8 50 4 15
3 27 -2 27 -4 0 -11 -18 -15 -40z"/>
<path d="M3402 2143 c-13 -26 -23 -83 -14 -83 7 0 32 92 27 98 -2 2 -8 -5 -13
-15z"/>
<path d="M3435 2114 c-7 -49 0 -74 10 -30 3 14 7 37 10 51 3 14 1 25 -4 25 -5
0 -12 -21 -16 -46z"/>
<path d="M3480 2150 c0 -5 5 -10 10 -10 6 0 10 5 10 10 0 6 -4 10 -10 10 -5 0
-10 -4 -10 -10z"/>
<path d="M3573 2139 c-2 -23 3 -25 10 -4 4 8 3 16 -1 19 -4 3 -9 -4 -9 -15z"/>
<path d="M1325 2140 c-3 -5 -1 -10 4 -10 6 0 11 5 11 10 0 6 -2 10 -4 10 -3 0
-8 -4 -11 -10z"/>
<path d="M2603 2138 c-31 -40 -23 -78 16 -77 25 0 25 0 4 9 -25 10 -29 30 -13
61 12 21 7 26 -7 7z"/>
<path d="M2820 2129 c-18 -33 -9 -64 20 -66 l25 -3 -23 10 c-23 10 -24 17 -5
68 8 20 -5 14 -17 -9z"/>
<path d="M3110 2140 c0 -5 5 -10 10 -10 6 0 10 5 10 10 0 6 -4 10 -10 10 -5 0
-10 -4 -10 -10z"/>
<path d="M3523 2138 c-29 -38 -24 -78 10 -78 20 0 20 0 1 14 -17 13 -18 18 -7
45 12 33 11 38 -4 19z"/>
<path d="M1470 2070 c0 -5 5 -10 11 -10 5 0 7 5 4 10 -3 6 -8 10 -11 10 -2 0
-4 -4 -4 -10z"/>
<path d="M2160 2070 c0 -5 5 -10 11 -10 5 0 7 5 4 10 -3 6 -8 10 -11 10 -2 0
-4 -4 -4 -10z"/>
<path d="M2350 2061 c0 -25 6 -27 13 -6 4 8 2 17 -3 20 -6 4 -10 -3 -10 -14z"/>
<path d="M3590 2070 c0 -5 5 -10 10 -10 6 0 10 5 10 10 0 6 -4 10 -10 10 -5 0
-10 -4 -10 -10z"/>
<path d="M1940 2041 c0 -6 4 -13 10 -16 6 -3 7 1 4 9 -7 18 -14 21 -14 7z"/>
<path d="M1540 2019 c0 -5 5 -7 10 -4 6 3 10 8 10 11 0 2 -4 4 -10 4 -5 0 -10
-5 -10 -11z"/>
</g>
</svg>
