<?xml version="1.0" standalone="no"?>
<!DOCTYPE svg PUBLIC "-//W3C//DTD SVG 20010904//EN"
 "http://www.w3.org/TR/2001/REC-SVG-20010904/DTD/svg10.dtd">
<svg version="1.0" xmlns="http://www.w3.org/2000/svg"
 width="500.000000pt" height="500.000000pt" viewBox="0 0 500.000000 500.000000"
 preserveAspectRatio="xMidYMid meet">

<g transform="translate(0.000000,500.000000) scale(0.100000,-0.100000)"
fill="#000000" stroke="none">
<path d="M2345 4494 c-415 -45 -728 -163 -1040 -394 -316 -233 -563 -573 -694
-953 -224 -653 -97 -1365 343 -1911 l71 -88 3 398 c1 262 -1 400 -8 404 -7 4
-9 244 -8 721 l3 714 585 0 585 0 -3 -160 c-1 -88 -2 -166 -2 -172 0 -10 -77
-13 -350 -13 l-350 0 0 -100 0 -100 330 0 330 0 0 -165 0 -165 -330 0 -330 0
0 -105 0 -105 393 -2 392 -3 3 -48 c3 -45 -1 -54 -64 -144 -37 -53 -69 -106
-70 -117 -1 -12 -3 -24 -3 -28 -1 -5 -154 -8 -341 -8 l-340 0 0 -575 0 -575
32 -21 c76 -47 262 -131 376 -169 179 -60 317 -89 490 -102 834 -65 1633 409
1974 1173 26 60 48 113 48 119 0 7 -97 10 -295 10 l-295 0 0 170 0 170 344 0
344 0 5 27 c3 16 12 94 18 176 47 548 -162 1129 -550 1531 -303 314 -706 524
-1137 591 -98 15 -382 27 -459 19z m-665 -1074 c0 -20 -5 -20 -327 -18 -303 3
-328 4 -331 21 -3 16 18 17 327 17 325 0 331 0 331 -20z m1978 -247 l3 -73
-330 -467 -331 -468 335 -3 335 -2 0 -175 0 -175 -695 0 -695 0 0 73 0 74 330
467 c182 257 330 469 330 472 0 2 -137 4 -305 4 l-305 0 0 168 c0 93 3 172 7
175 3 4 302 6 662 5 l656 -3 3 -72z m-1226 -1539 c27 -14 29 -17 15 -31 -11
-12 -19 -12 -35 -4 -26 14 -28 14 -46 -5 -20 -19 -21 -68 -2 -84 8 -6 25 -10
37 -8 29 4 37 28 10 28 -12 0 -21 6 -21 15 0 11 11 15 40 15 38 0 40 -2 40
-30 0 -43 -31 -70 -80 -70 -96 0 -127 129 -42 174 35 19 46 19 84 0z m392 6
c34 -12 24 -42 -12 -38 -37 4 -38 -18 -3 -37 41 -21 53 -45 38 -76 -21 -42
-140 -37 -124 5 5 13 14 16 41 11 48 -9 52 8 8 36 -47 30 -52 60 -16 88 31 24
33 25 68 11z m-746 -17 c-2 -12 -14 -19 -36 -21 -42 -4 -44 -32 -2 -32 23 0
30 -4 30 -20 0 -16 -7 -20 -30 -20 -42 0 -40 -28 2 -32 22 -2 34 -9 36 -20 3
-15 -5 -18 -52 -18 l-56 0 0 90 0 90 56 0 c47 0 55 -3 52 -17z m113 -35 l34
-53 3 53 c3 44 6 52 23 52 17 0 19 -7 19 -90 0 -87 -1 -90 -22 -90 -16 0 -32
14 -53 48 l-30 47 -3 -47 c-3 -43 -5 -48 -28 -48 -24 0 -24 1 -24 90 0 88 0
90 24 90 18 0 32 -13 57 -52z m359 -18 l0 -70 30 0 c23 0 30 -4 30 -20 0 -18
-7 -20 -55 -20 l-55 0 0 90 c0 89 0 90 25 90 24 0 25 -2 25 -70z m140 -20 c0
-89 0 -90 -25 -90 -25 0 -25 1 -25 90 0 89 0 90 25 90 25 0 25 -1 25 -90z
m240 55 c0 -32 2 -35 30 -35 28 0 30 3 30 35 0 28 4 35 20 35 19 0 20 -7 20
-90 0 -83 -1 -90 -20 -90 -16 0 -20 7 -20 35 0 32 -2 35 -30 35 -28 0 -30 -3
-30 -35 0 -28 -4 -35 -20 -35 -19 0 -20 7 -20 90 0 83 1 90 20 90 16 0 20 -7
20 -35z m-735 -265 c3 -5 0 -7 -8 -4 -19 7 -39 -19 -31 -40 5 -13 14 -16 31
-11 16 4 22 2 18 -5 -15 -25 -65 -3 -65 30 0 31 41 53 55 30z m116 -1 c-23 -9
-24 -10 -5 -24 17 -13 17 -14 2 -15 -26 0 -22 -18 5 -23 19 -4 18 -4 -5 -6
-26 -1 -28 2 -28 39 0 37 2 40 28 39 l27 0 -24 -10z m152 -13 c3 21 4 16 5
-16 l1 -45 -24 29 -23 29 -5 -29 c-3 -21 -4 -16 -5 16 l-1 45 24 -29 23 -29 5
29z m130 17 c-7 -2 -14 -21 -15 -41 l-1 -37 -4 35 c-3 19 -10 38 -16 42 -7 4
1 7 18 7 17 0 24 -3 18 -6z m120 0 c-27 -5 -29 -18 -5 -32 16 -10 16 -10 0
-11 -26 0 -22 -18 5 -23 19 -4 18 -4 -5 -6 -26 -1 -28 2 -28 39 0 37 2 40 28
39 23 -2 24 -2 5 -6z m143 -37 c1 -33 -1 -37 -11 -23 -15 21 -25 22 -25 2 0
-8 -5 -15 -11 -15 -6 0 -9 14 -8 33 4 44 7 49 32 45 18 -2 22 -10 23 -42z"/>
<path d="M2820 1325 c0 -9 5 -15 11 -13 6 2 11 8 11 13 0 5 -5 11 -11 13 -6 2
-11 -4 -11 -13z"/>
</g>
</svg>
